<?xml version="1.0" standalone="no"?>
<!DOCTYPE svg PUBLIC "-//W3C//DTD SVG 20010904//EN"
 "http://www.w3.org/TR/2001/REC-SVG-20010904/DTD/svg10.dtd">
<svg version="1.0" xmlns="http://www.w3.org/2000/svg"
 width="846.000000pt" height="846.000000pt" viewBox="0 0 846.000000 846.000000"
 preserveAspectRatio="xMidYMid meet">
<metadata>
Created by potrace 1.14, written by Peter Selinger 2001-2017
</metadata>
<g transform="translate(0.000000,846.000000) scale(0.100000,-0.100000)"
fill="#000000" stroke="none">
<path d="M118 8363 c-18 -5 -20 -11 -22 -73 -1 -35 16 -111 37 -159 5 -14 11
-28 11 -31 8 -46 168 -327 295 -519 31 -46 63 -94 71 -106 29 -45 178 -250
199 -275 129 -149 421 -447 551 -561 299 -264 589 -466 878 -613 l32 -17 -31
-45 c-17 -25 -43 -73 -59 -107 -23 -52 -34 -88 -56 -192 -15 -71 -18 -132 -19
-380 -1 -159 -5 -303 -9 -320 -4 -16 -13 -62 -21 -101 -27 -132 -42 -189 -59
-221 -9 -18 -15 -49 -15 -70 1 -21 -10 -85 -23 -143 -26 -108 -33 -227 -18
-297 5 -21 11 -55 14 -76 16 -106 83 -230 196 -361 41 -47 43 -49 97 -107 47
-51 51 -60 48 -95 -2 -22 -6 -75 -9 -119 -13 -201 -71 -385 -193 -615 -71
-132 -157 -285 -164 -290 -3 -3 -29 -41 -56 -85 -28 -44 -81 -127 -119 -185
-90 -136 -151 -292 -169 -430 -2 -19 -7 -84 -11 -145 -4 -60 -8 -112 -10 -114
-2 -2 -25 14 -51 36 -105 85 -172 126 -233 141 -51 13 -83 2 -100 -35 -15 -32
-33 -42 -45 -24 -9 15 -69 3 -83 -16 -7 -10 -16 -29 -18 -43 -4 -17 -13 -26
-27 -27 -48 -4 -57 -63 -26 -168 19 -67 119 -246 162 -290 7 -7 26 -29 42 -50
58 -74 138 -171 179 -216 22 -25 68 -76 100 -113 153 -174 276 -299 403 -408
110 -95 300 -146 382 -104 18 10 51 37 74 60 l40 43 41 -15 c65 -22 280 -10
409 23 29 7 54 12 56 10 1 -2 3 -29 2 -60 0 -70 8 -74 102 -50 l70 18 31 -36
c17 -20 39 -37 49 -37 10 0 40 21 68 47 l49 46 23 -20 c27 -25 61 -43 80 -43
7 0 26 25 41 55 14 30 30 55 35 55 4 0 18 -11 31 -25 13 -14 31 -25 40 -25 19
0 55 36 64 65 5 17 13 20 47 17 48 -5 70 16 63 63 -5 45 4 63 40 75 32 10 356
15 421 6 17 -2 40 -4 53 -5 21 -1 22 -2 7 -25 -9 -14 -15 -37 -13 -52 2 -23
13 -33 55 -54 39 -19 55 -34 67 -62 8 -20 25 -42 36 -48 20 -11 89 -8 110 5 5
3 26 -10 45 -30 30 -33 38 -36 67 -30 18 4 42 14 54 22 20 13 24 12 43 -14 36
-48 41 -53 60 -53 10 0 29 9 42 19 23 19 25 19 54 1 55 -33 95 4 95 88 0 25 8
46 24 65 l24 28 43 -29 c79 -52 184 -84 276 -84 81 0 83 -1 100 -29 23 -39 91
-65 168 -62 70 2 153 29 239 77 70 39 249 164 254 177 2 5 7 9 12 9 5 0 21 12
37 27 280 268 390 386 603 643 101 123 152 209 175 296 13 51 13 60 0 81 -9
13 -20 23 -25 23 -6 0 -10 13 -10 28 0 58 -33 71 -195 75 -47 1 -137 -42 -234
-112 -36 -25 -70 -49 -75 -53 -8 -4 -12 43 -13 150 -1 129 -5 168 -22 221 -33
99 -90 228 -139 311 -25 41 -53 95 -64 119 -10 24 -25 49 -32 55 -7 6 -25 32
-39 57 l-26 47 60 17 c129 36 401 163 423 198 8 12 7 23 -4 41 -12 19 -159
202 -232 288 -10 12 -18 24 -18 27 0 4 87 44 193 90 105 46 238 105 293 132
56 26 119 53 140 60 22 7 50 20 64 29 14 9 88 45 165 80 233 105 265 122 265
139 0 9 -46 64 -103 121 -104 106 -248 266 -450 504 -10 11 -28 32 -39 46 -66
78 -88 103 -163 185 -121 131 -145 160 -137 162 19 7 874 254 892 258 8 2 188
48 400 101 269 68 390 102 401 115 8 10 21 35 27 56 11 35 148 613 156 658 2
11 9 38 14 60 6 22 13 54 16 70 9 51 45 298 51 345 5 41 10 79 20 150 2 14 7
50 10 80 3 30 12 96 20 145 8 50 17 113 20 140 4 28 10 64 14 80 10 41 6 108
-8 133 -13 25 -40 27 -122 12 -30 -6 -69 -13 -88 -16 -80 -13 -378 -103 -691
-209 -485 -164 -808 -294 -1209 -487 -58 -27 -130 -61 -160 -75 -31 -14 -112
-52 -180 -84 -68 -33 -125 -59 -126 -59 -2 0 -46 -20 -98 -45 -53 -25 -100
-45 -105 -45 -9 0 -21 20 -87 142 l-25 47 108 52 c59 29 109 53 112 54 3 0 21
9 40 20 19 10 80 41 135 69 55 28 143 81 195 117 52 36 120 84 151 105 75 52
263 187 269 194 3 3 48 37 100 77 213 160 452 409 612 637 32 44 62 86 68 93
5 7 10 14 10 16 0 2 36 64 81 138 44 74 112 197 151 275 76 152 80 178 30 191
-53 15 -301 7 -392 -12 -47 -10 -125 -26 -150 -31 -14 -3 -90 -27 -170 -54
-292 -98 -659 -269 -845 -393 -60 -40 -349 -265 -415 -322 -122 -107 -173
-157 -311 -306 -104 -112 -105 -114 -224 -245 -44 -49 -96 -106 -115 -127
l-35 -38 -80 39 c-178 87 -371 147 -554 172 -151 20 -516 29 -666 16 -38 -3
-103 -8 -143 -11 -40 -3 -114 -15 -165 -26 -50 -11 -101 -22 -111 -24 -35 -8
-121 -36 -138 -46 -10 -5 -23 -9 -28 -9 -10 0 -28 -7 -140 -57 -85 -38 -195
-95 -211 -109 -22 -19 -35 -13 -43 22 -4 14 -18 43 -31 65 -14 21 -25 41 -25
44 0 8 -139 226 -187 294 -163 227 -449 524 -687 711 -10 8 -38 31 -61 50 -73
60 -78 64 -166 126 -196 140 -494 300 -744 400 -60 25 -119 48 -130 53 -82 34
-239 74 -355 91 -36 6 -74 12 -85 14 -11 2 -28 1 -37 -1z m5712 -4675 c111
-68 279 -176 295 -191 10 -10 0 -20 -47 -49 -32 -21 -61 -38 -64 -38 -3 0 -26
-14 -52 -30 -26 -17 -119 -75 -207 -129 l-160 -98 -12 51 c-24 97 -27 121 -26
218 l1 98 45 52 c24 29 63 79 87 111 23 31 45 57 48 57 4 0 45 -23 92 -52z"/>
<path d="M33 165 c-16 -18 -17 -67 -1 -83 32 -32 69 -1 61 53 -6 43 -36 58
-60 30z m45 -41 c2 -22 -2 -33 -13 -38 -18 -7 -35 27 -27 57 8 29 37 16 40
-19z"/>
<path d="M310 171 c0 -6 5 -13 10 -16 6 -3 10 1 10 9 0 9 -4 16 -10 16 -5 0
-10 -4 -10 -9z"/>
<path d="M233 133 c-15 -6 -17 -63 -3 -63 6 0 8 11 6 25 -4 20 -1 25 15 25 17
0 24 -16 20 -42 0 -5 4 -8 9 -8 18 0 11 49 -9 60 -11 5 -21 10 -23 9 -2 0 -9
-3 -15 -6z"/>
<path d="M148 122 c-33 -3 -38 -7 -38 -28 0 -13 5 -24 11 -24 5 0 8 4 5 9 -3
5 1 14 9 21 13 10 15 9 15 -9 0 -28 16 -27 24 2 l7 22 11 -25 c10 -22 12 -23
15 -6 7 27 -17 42 -59 38z"/>
<path d="M316 118 c-11 -23 1 -38 27 -37 16 1 17 3 5 6 -9 2 -19 14 -21 26 -3
19 -5 20 -11 5z"/>
</g>
</svg>
